<svg xmlns="http://www.w3.org/2000/svg" width="64" height="64" viewBox="0 0 64 64" version="1.1">
	<path d="" stroke="none" fill="#f86464" fill-rule="evenodd"/>
	<path d="M 17.250 13.637 C 7.059 19.554, 3.471 23, 7.500 23 C 8.762 23, 9 25.216, 9 36.944 C 9 50.243,
		  9.112 51.018, 11.413 53.694 L 13.827 56.500 31.886 56.500 C 55.573 56.500, 54.376 57.492,
		  54.824 37.475 C 55.086 25.759, 55.419 23, 56.574 23 C 57.358 23, 58 22.361, 58 21.580 C 58 19.505,
		  35.181 7, 31.500 7.057 C 29.685 7.086, 24.057 9.684, 17.250 13.637 M 29 11.317 C 27.625 12.035,
		  23.462 14.321, 19.750 16.397 L 13 20.172 13 35.386 C 13 45.886, 13.372 50.972, 14.200 51.800 C 15.037 52.637,
		  20.422 53, 32 53 C 43.578 53, 48.963 52.637, 49.800 51.800 C 50.628 50.972, 51 45.902,
		  51 35.457 L 51 20.315 41.690 15.157 C 36.570 12.321, 32.183 10.003, 31.940 10.006 C 31.698 10.010,
		  30.375 10.600, 29 11.317 M 23.399 42.164 C 22.129 44.218, 27.702 48, 32 48 C 36.794 48, 42.291 43.943,
		  40.274 41.893 C 39.296 40.900, 38.634 41.021, 37.011 42.490 C 34.475 44.785, 29.621 44.872, 27.184 42.667 C 25.003 40.693,
		  24.360 40.608, 23.399 42.164" stroke="none" fill="#f46464" fill-rule="evenodd"/></svg>