<?xml version="1.0" encoding="UTF-8"?>
<svg version="1.1" xmlns="http://www.w3.org/2000/svg" width="64" height="64">
<path d="M0 0 C2.85886752 1.45431654 5.60551323 3.02916688 8.3605957 4.67114258 C9.79628906 5.47938477 9.79628906 5.47938477 11.26098633 6.30395508 C18.22259486 10.35542349 18.22259486 10.35542349 19.19873047 13.10961914 C19.272771 13.70742188 19.34681152 14.30522461 19.4230957 14.92114258 C18.4330957 14.92114258 17.4430957 14.92114258 16.4230957 14.92114258 C16.44404297 15.74316162 16.46499023 16.56518066 16.48657227 17.41210938 C16.56982879 21.14416222 16.62178817 24.87601951 16.6730957 28.60864258 C16.72336914 30.54900391 16.72336914 30.54900391 16.7746582 32.52856445 C16.78754883 33.77573242 16.80043945 35.02290039 16.8137207 36.30786133 C16.83466797 37.45472412 16.85561523 38.60158691 16.87719727 39.78320312 C16.32694469 43.58556673 15.08038379 45.20239467 12.4230957 47.92114258 C9.39524505 49.43506791 6.25243978 49.08398357 2.9309082 49.08911133 C1.8173848 49.09410393 1.8173848 49.09410393 0.68136597 49.09919739 C-0.89055766 49.10426345 -2.46249205 49.10660581 -4.03442383 49.10644531 C-6.4354841 49.10862765 -8.83608186 49.12677481 -11.23706055 49.14575195 C-12.76440273 49.1486868 -14.29174709 49.15067098 -15.8190918 49.15161133 C-16.89427567 49.1623896 -16.89427567 49.1623896 -17.99118042 49.17338562 C-24.62747825 49.14309036 -24.62747825 49.14309036 -27.5769043 46.92114258 C-29.98259504 43.58259424 -29.80875491 40.42470964 -29.7722168 36.40551758 C-29.76577148 35.15512695 -29.75932617 33.90473633 -29.75268555 32.61645508 C-29.73592773 31.31450195 -29.71916992 30.01254883 -29.7019043 28.67114258 C-29.69288086 27.3537207 -29.68385742 26.03629883 -29.67456055 24.67895508 C-29.65098963 21.42616796 -29.61808452 18.17374669 -29.5769043 14.92114258 C-30.8969043 14.59114258 -32.2169043 14.26114258 -33.5769043 13.92114258 C-29.50795456 9.3955572 -25.05938202 6.56001331 -19.7644043 3.60864258 C-18.99547852 3.15424805 -18.22655273 2.69985352 -17.43432617 2.23168945 C-11.44141502 -1.13142102 -6.54396733 -2.73972445 0 0 Z M-11.9050293 4.01098633 C-12.70424805 4.46538086 -13.5034668 4.91977539 -14.3269043 5.38793945 C-15.1519043 5.87327148 -15.9769043 6.35860352 -16.8269043 6.85864258 C-17.66737305 7.34010742 -18.5078418 7.82157227 -19.3737793 8.31762695 C-21.44806176 9.50798223 -23.51510095 10.70934205 -25.5769043 11.92114258 C-25.65109563 16.13863477 -25.70552469 20.35578068 -25.74169922 24.57373047 C-25.75678018 26.00836809 -25.7772481 27.44295966 -25.80322266 28.87744141 C-25.83963866 30.94030116 -25.85663673 33.00255115 -25.86987305 35.06567383 C-25.8855835 36.30679932 -25.90129395 37.5479248 -25.91748047 38.82666016 C-25.79117442 41.83043548 -25.79117442 41.83043548 -24.5078125 43.82470703 C-21.49733546 45.53415859 -18.82539899 45.31067634 -15.3894043 45.31958008 C-14.34103394 45.32388535 -14.34103394 45.32388535 -13.27148438 45.32827759 C-11.79548328 45.33031683 -10.31945508 45.3247966 -8.84350586 45.31225586 C-6.58475292 45.29619837 -4.32778912 45.31210728 -2.0690918 45.33129883 C-0.63419202 45.32931637 0.80070665 45.32547263 2.2355957 45.31958008 C4.19432617 45.31450439 4.19432617 45.31450439 6.19262695 45.30932617 C9.31897083 45.14475974 9.31897083 45.14475974 11.35400391 43.82470703 C12.99513736 40.90259753 12.75818603 38.39327808 12.71606445 35.06567383 C12.70969719 34.07321907 12.70969719 34.07321907 12.70320129 33.06071472 C12.68643264 30.95127348 12.64878669 28.84279412 12.6105957 26.73364258 C12.59554639 25.30201577 12.58185841 23.87037396 12.56958008 22.4387207 C12.536536 18.9325497 12.48476738 15.42694004 12.4230957 11.92114258 C9.84299374 10.43608389 7.25932012 8.95796947 4.6730957 7.48364258 C3.57868164 6.85232422 3.57868164 6.85232422 2.4621582 6.20825195 C1.75317383 5.80541992 1.04418945 5.40258789 0.3137207 4.98754883 C-0.33564453 4.61573486 -0.98500977 4.2439209 -1.65405273 3.86083984 C-5.86903925 1.80097657 -7.78012923 1.62443701 -11.9050293 4.01098633 Z " fill="#F46363" transform="translate(38.576904296875,8.078857421875)"/>
<path d="M0 0 C1.32 0 2.64 0 4 0 C4 0.66 4 1.32 4 2 C8.0100934 2.17864631 8.0100934 2.17864631 12 2 C12.66 1.34 13.32 0.68 14 0 C15.32 0 16.64 0 18 0 C17.64978759 2.53903996 17.15988127 3.82093298 15.4375 5.75 C11.97807345 7.5240649 8.76250382 7.68544624 5 7 C2 5.1875 2 5.1875 0 3 C0 2.01 0 1.02 0 0 Z " fill="#F46464" transform="translate(23,41)"/>
</svg>
